<svg
  xmlns="http://www.w3.org/2000/svg"
  width="20"
  height="20"
  viewBox="0 0 20 20"
  fill="currentColor"
  shape-rendering="crispEdges"
>
  <rect x="3" y="1" width="14" height="3" />
  <rect x="1" y="2" width="2" height="8" />
  <rect x="17" y="2" width="2" height="8" />
  <rect x="3" y="6" width="14" height="2" />
  <rect x="4" y="8" width="2" height="3" />
  <rect x="7" y="8" width="2" height="8" />
  <rect x="11" y="8" width="2" height="10" />
  <rect x="14" y="8" width="2" height="3" />
  <rect x="3" y="9" width="1" height="2" />
  <rect x="6" y="9" width="1" height="2" />
  <rect x="13" y="9" width="1" height="2" />
  <rect x="16" y="9" width="1" height="2" />
  <rect x="2" y="10" width="1" height="1" />
  <rect x="17" y="10" width="1" height="1" />
  <rect x="5" y="11" width="1" height="6" />
  <rect x="6" y="12" width="1" height="5" />
  <rect x="4" y="13" width="1" height="3" />
  <rect x="13" y="14" width="3" height="2" />
  <rect x="16" y="15" width="1" height="3" />
  <rect x="7" y="16" width="1" height="1" />
  <rect x="14" y="16" width="2" height="3" />
  <rect x="13" y="17" width="1" height="2" />
  <rect x="12" y="18" width="1" height="1" />
</svg>
