<svg
  xmlns="http://www.w3.org/2000/svg"
  width="26"
  height="26"
  viewBox="0 0 26 26"
  fill="currentColor"
  shape-rendering="crispEdges"
>
  <rect x="6" y="5" width="2" height="5" />
  <rect x="5" y="6" width="1" height="9" />
  <rect x="8" y="6" width="1" height="9" />
  <rect x="18" y="6" width="3" height="13" />
  <rect x="4" y="8" width="1" height="7" />
  <rect x="9" y="8" width="1" height="7" />
  <rect x="10" y="10" width="1" height="7" />
  <rect x="3" y="11" width="1" height="7" />
  <rect x="14" y="12" width="4" height="2" />
  <rect x="21" y="12" width="4" height="2" />
  <rect x="2" y="13" width="1" height="6" />
  <rect x="6" y="13" width="2" height="2" />
  <rect x="11" y="13" width="1" height="6" />
  <rect x="15" y="14" width="3" height="1" />
  <rect x="21" y="14" width="3" height="1" />
  <rect x="1" y="15" width="1" height="3" />
  <rect x="12" y="15" width="1" height="4" />
  <rect x="16" y="15" width="2" height="1" />
  <rect x="21" y="15" width="2" height="1" />
  <rect x="17" y="16" width="1" height="1" />
  <rect x="21" y="16" width="1" height="1" />
</svg>
